<svg id="Layer_1" data-name="Layer 1" xmlns="http://www.w3.org/2000/svg" viewBox="0 0 528.68 31.8"><defs><style>.cls-1{isolation:isolate;}.cls-2{fill:#ed1c24;}.cls-3{fill:#4f5153;}</style></defs><title>logo-new-v2</title><g class="cls-1"><g class="cls-1"><path class="cls-2" d="M33.67,17.7c3.23,0,7.69.76,10.67,4.12,3.23,3.7,3.86,8.44,3.86,11.43,0,4.41-1.34,9.12-3.82,11.89-3.36,3.78-8.28,4.33-10.8,4.33A14.69,14.69,0,0,1,22.84,45.3C19.52,41.77,19.1,36.73,19.1,34,19.1,25.9,22.75,17.7,33.67,17.7Zm-5.5,24.53c0.92,1.26,2.48,2.44,5.5,2.44a6.16,6.16,0,0,0,5.67-2.81c1-1.51,2.06-3.86,2.06-8.7a17.49,17.49,0,0,0-.76-5.42c-1.26-3.74-3.82-5.38-6.93-5.38a6.9,6.9,0,0,0-5.59,2.56c-1.72,2.1-2.23,5.38-2.23,8.82C25.9,36.65,26.37,39.88,28.17,42.24Z" transform="translate(-19.1 -17.7)"/><path class="cls-2" d="M52.74,32.7c0-1-.17-4.07-0.29-5.29h5.84l0.13,4.08c0.8-1.81,2.18-4.37,7.23-4.12V33C59.33,32.37,59,35.6,59,38.25V48.71H52.74v-16Z" transform="translate(-19.1 -17.7)"/><path class="cls-2" d="M81,48.71a17,17,0,0,1-.21-2.9,7.06,7.06,0,0,1-6.34,3.4c-3.07,0-4.45-.88-5.29-1.68a6.57,6.57,0,0,1-1.85-4.66,7.06,7.06,0,0,1,4.5-6.6c2.6-1.18,6.34-1.18,8.4-1.18a8.29,8.29,0,0,0-.29-2.81,2.87,2.87,0,0,0-2.77-1.76,2.83,2.83,0,0,0-2.35,1.18,3.19,3.19,0,0,0-.46,1.89H68.2a5.94,5.94,0,0,1,2.39-5A11.09,11.09,0,0,1,77,26.86c1.76,0,5.46.29,7.56,2.73A8.38,8.38,0,0,1,86,34.8l0,8.53a25.61,25.61,0,0,0,.5,5.38H81Zm-7.65-6.55a2.93,2.93,0,0,0,3,3A3.52,3.52,0,0,0,79,44c1.09-1.34,1.18-3,1.18-5.25C76.18,38.37,73.32,39.63,73.32,42.15Z" transform="translate(-19.1 -17.7)"/><path class="cls-2" d="M102.81,35c-0.08-.76-0.34-3.91-2.73-3.91-2.94,0-3.28,4.45-3.28,6.76,0,1.18.13,5,1.55,6.51a2.15,2.15,0,0,0,1.68.71c0.67,0,2.6-.29,2.86-4.08H109a8,8,0,0,1-2.73,6.26,8.74,8.74,0,0,1-6,2c-2.81,0-5.29-.63-7.23-2.81a12.35,12.35,0,0,1-2.69-8.36c0-9.66,7.1-11,9.91-11,3.95,0,8.61,2.18,8.65,7.94h-6.09Z" transform="translate(-19.1 -17.7)"/><path class="cls-2" d="M112.59,18.33h6.22V48.71h-6.22V18.33Z" transform="translate(-19.1 -17.7)"/><path class="cls-2" d="M129.27,39.67c0,1.39,0,5.67,4.33,5.67a3.47,3.47,0,0,0,3.7-2.94H143a7.1,7.1,0,0,1-2,4.62c-1.55,1.64-4.33,2.48-7.44,2.48-1.81,0-5.25-.34-7.48-2.65-1.93-2-2.73-4.87-2.73-8.28s0.84-7.56,4.41-10a10.64,10.64,0,0,1,6-1.76,9.11,9.11,0,0,1,8.57,5.13,15.75,15.75,0,0,1,1.26,7.77H129.27Zm7.9-3.91c0-1-.08-4.75-3.7-4.75-2.73,0-3.86,2.27-4,4.75h7.69Z" transform="translate(-19.1 -17.7)"/></g><g class="cls-1"><path class="cls-3" d="M177.43,28.25c-0.13-1-.5-5.33-4.92-5.33-4.83,0-6.85,5-6.85,11.3,0,1.81,0,10.42,6.34,10.42,2.73,0,5.33-1.72,5.46-5.75h6.85A10.39,10.39,0,0,1,181.59,46a11.91,11.91,0,0,1-8.86,3.4c-10.46,0-13.86-7.73-13.86-15.25,0-9.62,5.38-16,13.9-16,6.64,0,11.3,4,11.3,10.08h-6.64Z" transform="translate(-19.1 -17.7)"/><path class="cls-3" d="M188.18,18.33h6.22V48.71h-6.22V18.33Z" transform="translate(-19.1 -17.7)"/><path class="cls-3" d="M209.85,27c7.69,0,11,5.21,11,11.13s-3.44,11.34-11.13,11.34c-6,0-10.84-3.74-10.84-11.17C198.89,33.16,201.49,27,209.85,27Zm0.08,18.15c2.73,0,4.58-1.64,4.58-7.27,0-2.81-.55-6.72-4.66-6.72-4.54,0-4.58,5.25-4.58,7.18C205.27,43.08,206.87,45.14,209.94,45.14Z" transform="translate(-19.1 -17.7)"/><path class="cls-3" d="M231.61,27.49V40.14c0,1.85,0,4.66,3.32,4.66,4,0,4-3,4-6.6V27.49h6.39v14c0.08,4.58.13,5.13,0.13,5.67s0.08,1,.17,1.55h-6l-0.21-2.81a7,7,0,0,1-6.26,3.36,8.08,8.08,0,0,1-6.39-2.86c-1.39-1.72-1.39-4.66-1.39-5.71V27.49h6.3Z" transform="translate(-19.1 -17.7)"/><path class="cls-3" d="M265.21,18.38h6.26V45.26c0,1.26.08,2.65,0.17,3.44h-6.3l-0.17-3.07A5.71,5.71,0,0,1,263,48a7.43,7.43,0,0,1-4.12,1.09c-5.67,0-9-3.91-9-10.54,0-7,3.82-11.38,9.37-11.38a6.8,6.8,0,0,1,6,2.9V18.38Zm-4.75,26.72a4.49,4.49,0,0,0,3.95-2.39,11.29,11.29,0,0,0,1-5c0-4.16-1.81-6.43-4.62-6.43-4.16,0-4.62,5-4.62,7.14C256.18,41.94,257.35,45.09,260.46,45.09Z" transform="translate(-19.1 -17.7)"/><path class="cls-3" d="M293.89,39c0,1.43-.08,5.76,5.5,5.76,3.53,0,5.75-1.68,5.75-4.24s-1.89-3.15-5.75-4.08c-7.23-1.81-11.17-3.95-11.17-9.2,0-5,3.57-9.41,12-9.41,3.15,0,6.89.71,9.16,3.57A8.75,8.75,0,0,1,311.11,27h-6.26c-0.08-1-.42-4.62-4.92-4.62-3,0-5,1.64-5,4.12,0,2.81,2.23,3.32,6.6,4.41C306.79,32.2,312,33.62,312,39.55c0,5.46-4.54,9.87-12.94,9.87-11.64,0-11.72-7.48-11.76-10.42h6.64Z" transform="translate(-19.1 -17.7)"/><path class="cls-3" d="M326.53,27c7.69,0,11,5.21,11,11.13s-3.45,11.34-11.13,11.34c-6,0-10.84-3.74-10.84-11.17C315.56,33.16,318.17,27,326.53,27Zm0.08,18.15c2.73,0,4.58-1.64,4.58-7.27,0-2.81-.55-6.72-4.66-6.72-4.54,0-4.58,5.25-4.58,7.18C321.95,43.08,323.54,45.14,326.61,45.14Z" transform="translate(-19.1 -17.7)"/><path class="cls-3" d="M342.19,18.33h6.22V48.71h-6.22V18.33Z" transform="translate(-19.1 -17.7)"/><path class="cls-3" d="M360,27.49V40.14c0,1.85,0,4.66,3.32,4.66,4,0,4-3,4-6.6V27.49h6.38v14c0.08,4.58.13,5.13,0.13,5.67s0.08,1,.17,1.55h-6l-0.21-2.81a7,7,0,0,1-6.26,3.36A8.08,8.08,0,0,1,355,46.4c-1.39-1.72-1.39-4.66-1.39-5.71V27.49H360Z" transform="translate(-19.1 -17.7)"/><path class="cls-3" d="M392,48.41a19.28,19.28,0,0,1-4.83.67c-6.26,0-6.26-3.95-6.26-5.71V31.74h-4.08V27.62h4.08V23.46l6.17-2.27v6.43h5v4.12h-5v9.58c0,1.93,0,3.15,2.81,3.15a15.69,15.69,0,0,0,2.1-.13v4.08Z" transform="translate(-19.1 -17.7)"/><path class="cls-3" d="M395.66,18.38h6.64V23.8h-6.64V18.38Zm0.21,9.07h6.22V48.71h-6.22V27.45Z" transform="translate(-19.1 -17.7)"/><path class="cls-3" d="M417.54,27c7.69,0,11,5.21,11,11.13s-3.44,11.34-11.13,11.34c-6,0-10.84-3.74-10.84-11.17C406.58,33.16,409.18,27,417.54,27Zm0.08,18.15c2.73,0,4.58-1.64,4.58-7.27,0-2.81-.55-6.72-4.66-6.72-4.54,0-4.58,5.25-4.58,7.18C413,43.08,414.56,45.14,417.62,45.14Z" transform="translate(-19.1 -17.7)"/><path class="cls-3" d="M433.29,31.27c0-.08,0-2.39-0.13-3.87h6l0.17,3.19c0.59-1,2.27-3.7,6.89-3.7,4.16,0,5.92,2.52,6.47,4,0.46,1.3.59,2.39,0.59,6.34V48.71H446.9V35.52a5.07,5.07,0,0,0-.34-2.31,3.24,3.24,0,0,0-3-1.81A3.87,3.87,0,0,0,440.3,33a5.8,5.8,0,0,0-.76,3.23V48.71h-6.26V31.27Z" transform="translate(-19.1 -17.7)"/><path class="cls-3" d="M470.62,18.33h6.51V30.47H488.6V18.33h6.59V48.71h-6.51V35.39H477.14V48.71h-6.51V18.33Z" transform="translate(-19.1 -17.7)"/><path class="cls-3" d="M507,27.49V40.14c0,1.85,0,4.66,3.32,4.66,4,0,4-3,4-6.6V27.49h6.38v14c0.08,4.58.13,5.13,0.13,5.67s0.08,1,.17,1.55h-6l-0.21-2.81a7,7,0,0,1-6.26,3.36A8.08,8.08,0,0,1,502,46.4c-1.39-1.72-1.39-4.66-1.39-5.71V27.49H507Z" transform="translate(-19.1 -17.7)"/><path class="cls-3" d="M526.32,18.42h6.22V30.05a7.15,7.15,0,0,1,6-2.86c5.17,0,9.24,4.08,9.24,11.22,0,7.94-4.62,10.71-8.86,10.71a7,7,0,0,1-6.39-3.4c0,0.67-.08,1.68-0.21,3h-6V18.42Zm10.54,12.94c-4.58,0-4.58,5.21-4.58,6.55,0,4.83,2.06,7.14,4.87,7.14,4.29,0,4.29-5.33,4.29-6.43C541.44,36.94,541.35,31.36,536.86,31.36Z" transform="translate(-19.1 -17.7)"/></g></g></svg>