<svg id="Layer_1" data-name="Layer 1" xmlns="http://www.w3.org/2000/svg" viewBox="0 0 527.81 31.8"><defs><style>.cls-1{fill:#ee1c4e;}.cls-2{fill:#4e5052;}</style></defs><title>logo</title><path class="cls-1" d="M29.34,25.37c3.23,0,7.69.76,10.67,4.12,3.23,3.7,3.86,8.44,3.86,11.43,0,4.41-1.34,9.12-3.82,11.89-3.36,3.78-8.28,4.33-10.8,4.33A14.69,14.69,0,0,1,18.5,53c-3.32-3.53-3.74-8.57-3.74-11.34C14.76,33.56,18.42,25.37,29.34,25.37ZM23.84,49.9c0.92,1.26,2.48,2.44,5.5,2.44A6.16,6.16,0,0,0,35,49.53c1-1.51,2.06-3.87,2.06-8.7a17.48,17.48,0,0,0-.76-5.42C35.05,31.67,32.49,30,29.38,30A6.9,6.9,0,0,0,23.8,32.6c-1.72,2.1-2.23,5.38-2.23,8.82C21.57,44.32,22,47.55,23.84,49.9Z" transform="translate(-14.76 -25.37)"/><path class="cls-1" d="M48.41,40.37c0-1-.17-4.07-0.29-5.29H54l0.13,4.07c0.8-1.81,2.18-4.37,7.23-4.12v5.59c-6.3-.59-6.68,2.65-6.68,5.29V56.37H48.41v-16Z" transform="translate(-14.76 -25.37)"/><path class="cls-1" d="M76.63,56.37a17,17,0,0,1-.21-2.9,7.06,7.06,0,0,1-6.34,3.4c-3.07,0-4.45-.88-5.29-1.68a6.57,6.57,0,0,1-1.85-4.66,7.05,7.05,0,0,1,4.5-6.6c2.6-1.18,6.34-1.18,8.4-1.18a8.29,8.29,0,0,0-.29-2.81,2.88,2.88,0,0,0-2.77-1.76,2.83,2.83,0,0,0-2.35,1.18A3.2,3.2,0,0,0,70,41.25H63.86a5.94,5.94,0,0,1,2.39-5,11.09,11.09,0,0,1,6.43-1.72c1.76,0,5.46.29,7.56,2.73a8.38,8.38,0,0,1,1.47,5.21l0,8.53a25.6,25.6,0,0,0,.5,5.38H76.63ZM69,49.82a2.93,2.93,0,0,0,3,3,3.52,3.52,0,0,0,2.65-1.22c1.09-1.34,1.18-3,1.18-5.25C71.84,46,69,47.3,69,49.82Z" transform="translate(-14.76 -25.37)"/><path class="cls-1" d="M98.47,42.68c-0.08-.76-0.34-3.91-2.73-3.91-2.94,0-3.28,4.45-3.28,6.76,0,1.18.13,5,1.55,6.51a2.15,2.15,0,0,0,1.68.71c0.67,0,2.6-.29,2.86-4.08h6.13A8,8,0,0,1,102,54.94a8.74,8.74,0,0,1-6,2c-2.81,0-5.29-.63-7.23-2.81A12.35,12.35,0,0,1,86,45.74c0-9.66,7.1-11,9.91-11,3.95,0,8.61,2.18,8.65,7.94H98.47Z" transform="translate(-14.76 -25.37)"/><path class="cls-1" d="M108.26,26h6.22V56.37h-6.22V26Z" transform="translate(-14.76 -25.37)"/><path class="cls-1" d="M124.93,47.34c0,1.39,0,5.67,4.33,5.67a3.47,3.47,0,0,0,3.7-2.94h5.67a7.1,7.1,0,0,1-2,4.62c-1.55,1.64-4.33,2.48-7.44,2.48-1.81,0-5.25-.34-7.48-2.65-1.93-2-2.73-4.87-2.73-8.28s0.84-7.56,4.41-10a10.63,10.63,0,0,1,6-1.76,9.11,9.11,0,0,1,8.57,5.12,15.75,15.75,0,0,1,1.26,7.77H124.93Zm7.9-3.91c0-1-.08-4.75-3.7-4.75-2.73,0-3.86,2.27-4,4.75h7.69Z" transform="translate(-14.76 -25.37)"/><path class="cls-2" d="M172.23,35.91c-0.13-1.05-.5-5.33-4.92-5.33-4.83,0-6.85,5-6.85,11.3,0,1.81,0,10.42,6.34,10.42,2.73,0,5.33-1.72,5.46-5.75h6.85a10.39,10.39,0,0,1-2.73,7.14,11.91,11.91,0,0,1-8.86,3.4c-10.46,0-13.86-7.73-13.86-15.25,0-9.62,5.38-16,13.9-16,6.64,0,11.3,4,11.3,10.08h-6.64Z" transform="translate(-14.76 -25.37)"/><path class="cls-2" d="M183,26h6.22V56.37H183V26Z" transform="translate(-14.76 -25.37)"/><path class="cls-2" d="M204.65,34.65c7.69,0,11,5.21,11,11.13s-3.44,11.34-11.13,11.34c-6,0-10.84-3.74-10.84-11.17C193.68,40.83,196.29,34.65,204.65,34.65Zm0.08,18.15c2.73,0,4.58-1.64,4.58-7.27,0-2.81-.55-6.72-4.66-6.72-4.54,0-4.58,5.25-4.58,7.18C200.07,50.74,201.67,52.8,204.73,52.8Z" transform="translate(-14.76 -25.37)"/><path class="cls-2" d="M226.4,35.16V47.8c0,1.85,0,4.66,3.32,4.66,4,0,4-3,4-6.6V35.16h6.39v14c0.08,4.58.13,5.12,0.13,5.67s0.08,1,.17,1.55h-6l-0.21-2.81a7,7,0,0,1-6.26,3.36,8.08,8.08,0,0,1-6.39-2.86c-1.39-1.72-1.39-4.66-1.39-5.71V35.16h6.3Z" transform="translate(-14.76 -25.37)"/><path class="cls-2" d="M260,26h6.26V52.93c0,1.26.08,2.65,0.17,3.44h-6.3L260,53.31a5.71,5.71,0,0,1-2.14,2.39,7.43,7.43,0,0,1-4.12,1.09c-5.67,0-9-3.91-9-10.54,0-7,3.82-11.38,9.37-11.38a6.8,6.8,0,0,1,6,2.9V26Zm-4.75,26.72a4.49,4.49,0,0,0,3.95-2.39,11.29,11.29,0,0,0,1-5c0-4.16-1.81-6.43-4.62-6.43-4.16,0-4.62,5-4.62,7.14C251,49.61,252.15,52.76,255.26,52.76Z" transform="translate(-14.76 -25.37)"/><path class="cls-2" d="M288.69,46.67c0,1.43-.08,5.75,5.5,5.75,3.53,0,5.75-1.68,5.75-4.24s-1.89-3.15-5.75-4.07C287,42.3,283,40.16,283,34.91c0-5,3.57-9.41,12-9.41,3.15,0,6.89.71,9.16,3.57a8.75,8.75,0,0,1,1.72,5.63h-6.26c-0.08-1.05-.42-4.62-4.92-4.62-3,0-5,1.64-5,4.12,0,2.81,2.23,3.32,6.6,4.41,5.25,1.26,10.42,2.69,10.42,8.61,0,5.46-4.54,9.87-12.94,9.87-11.64,0-11.72-7.48-11.76-10.42h6.64Z" transform="translate(-14.76 -25.37)"/><path class="cls-2" d="M321.32,34.65c7.69,0,11,5.21,11,11.13s-3.44,11.34-11.13,11.34c-6,0-10.84-3.74-10.84-11.17C310.36,40.83,313,34.65,321.32,34.65Zm0.08,18.15c2.73,0,4.58-1.64,4.58-7.27,0-2.81-.55-6.72-4.66-6.72-4.54,0-4.58,5.25-4.58,7.18C316.74,50.74,318.34,52.8,321.41,52.8Z" transform="translate(-14.76 -25.37)"/><path class="cls-2" d="M337,26h6.22V56.37H337V26Z" transform="translate(-14.76 -25.37)"/><path class="cls-2" d="M354.75,35.16V47.8c0,1.85,0,4.66,3.32,4.66,4,0,4-3,4-6.6V35.16h6.38v14c0.08,4.58.13,5.12,0.13,5.67s0.08,1,.17,1.55h-6l-0.21-2.81a7,7,0,0,1-6.26,3.36,8.08,8.08,0,0,1-6.39-2.86c-1.39-1.72-1.39-4.66-1.39-5.71V35.16h6.3Z" transform="translate(-14.76 -25.37)"/><path class="cls-2" d="M386.8,56.08a19.28,19.28,0,0,1-4.83.67c-6.26,0-6.26-3.95-6.26-5.71V39.4h-4.08V35.28h4.08V31.13l6.17-2.27v6.43h5V39.4h-5V49c0,1.93,0,3.15,2.81,3.15a15.7,15.7,0,0,0,2.1-.13v4.07Z" transform="translate(-14.76 -25.37)"/><path class="cls-2" d="M390.45,26h6.64v5.42h-6.64V26Zm0.21,9.07h6.22V56.37h-6.22V35.12Z" transform="translate(-14.76 -25.37)"/><path class="cls-2" d="M412.34,34.65c7.69,0,11,5.21,11,11.13s-3.44,11.34-11.13,11.34c-6,0-10.84-3.74-10.84-11.17C401.37,40.83,404,34.65,412.34,34.65Zm0.08,18.15c2.73,0,4.58-1.64,4.58-7.27,0-2.81-.55-6.72-4.66-6.72-4.54,0-4.58,5.25-4.58,7.18C407.76,50.74,409.35,52.8,412.42,52.8Z" transform="translate(-14.76 -25.37)"/><path class="cls-2" d="M428.08,38.94c0-.08,0-2.39-0.13-3.86h6l0.17,3.19c0.59-1,2.27-3.7,6.89-3.7,4.16,0,5.92,2.52,6.47,4,0.46,1.3.59,2.39,0.59,6.34V56.37h-6.34V43.18a5.07,5.07,0,0,0-.34-2.31,3.24,3.24,0,0,0-3-1.81,3.86,3.86,0,0,0-3.23,1.64,5.8,5.8,0,0,0-.76,3.23V56.37h-6.26V38.94Z" transform="translate(-14.76 -25.37)"/><path class="cls-2" d="M465.42,26h6.51V38.14H483.4V26H490V56.37h-6.51V43.06H471.93V56.37h-6.51V26Z" transform="translate(-14.76 -25.37)"/><path class="cls-2" d="M501.75,35.16V47.8c0,1.85,0,4.66,3.32,4.66,4,0,4-3,4-6.6V35.16h6.38v14c0.08,4.58.13,5.12,0.13,5.67s0.08,1,.17,1.55h-6l-0.21-2.81a7,7,0,0,1-6.26,3.36,8.08,8.08,0,0,1-6.39-2.86c-1.39-1.72-1.39-4.66-1.39-5.71V35.16h6.3Z" transform="translate(-14.76 -25.37)"/><path class="cls-2" d="M521.11,26.08h6.22V37.72a7.15,7.15,0,0,1,6-2.86c5.17,0,9.24,4.07,9.24,11.22,0,7.94-4.62,10.71-8.86,10.71a7,7,0,0,1-6.39-3.4c0,0.67-.08,1.68-0.21,3h-6V26.08ZM531.66,39c-4.58,0-4.58,5.21-4.58,6.55,0,4.83,2.06,7.14,4.87,7.14,4.29,0,4.29-5.33,4.29-6.43C536.24,44.61,536.15,39,531.66,39Z" transform="translate(-14.76 -25.37)"/></svg>